<?xml version="1.0" encoding="UTF-8"?>
<svg xmlns="http://www.w3.org/2000/svg" version="1.1" viewBox="0 0 709.47 201.05">
  <defs>
    <style>
      .cls-1 {
        fill: #1c6bea;
      }
    </style>
  </defs>
  <!-- Generator: Adobe Illustrator 28.7.1, SVG Export Plug-In . SVG Version: 1.2.0 Build 142)  -->
  <g>
    <g id="Layer_1">
      <g>
        <g>
          <path class="cls-1" d="M82.65,138.4c7.11,13.02,20.86,21.54,36.92,20.96,3.6-.13,7.08-1.1,9.38-3.76,2.02-2.33,3.18-6.58.95-9.91-2.58.65-5.27,1.04-8.04,1.14-9.59.35-18.48-2.84-25.44-8.38h-12.63c-.39,0-.77-.04-1.15-.06Z"/>
          <path class="cls-1" d="M64.38,119.04v-11.76c-9.68,16.26-7.42,37.05,7.08,50.54,2.64,2.46,5.78,4.22,9.29,3.98,3.08-.21,6.9-2.41,7.68-6.33-2.29-1.37-4.46-2.99-6.49-4.88-5.06-4.7-8.56-10.45-10.5-16.59-4.31-3.56-7.06-8.95-7.06-14.96Z"/>
          <path class="cls-1" d="M66.18,82.87c-16.71,5.62-28.32,21.18-27.64,39.85.13,3.6,1.1,7.08,3.76,9.38,2.33,2.02,6.58,3.18,9.91.95-.65-2.58-1.04-5.27-1.14-8.04-.44-12.16,4.8-23.2,13.33-30.59v-3.45c0-2.9.65-5.64,1.8-8.11Z"/>
          <path class="cls-1" d="M96.3,71.56c-16.8-14.08-41.1-13.2-56.22,3.06-2.46,2.64-4.22,5.78-3.98,9.29.21,3.08,2.41,6.9,6.33,7.68,1.37-2.29,2.99-4.46,4.88-6.49,7.95-8.55,18.88-12.67,29.7-12.28,2.12-.8,4.41-1.25,6.8-1.25h12.5Z"/>
          <path class="cls-1" d="M115.87,72.22c-4.72-18.24-20.97-31.24-40.7-30.53-3.6.13-7.08,1.1-9.38,3.76-2.02,2.33-3.18,6.58-.95,9.91,2.58-.65,5.27-1.04,8.04-1.14,13.97-.51,26.48,6.48,33.66,17.35h4.41c1.7,0,3.35.24,4.93.66Z"/>
          <path class="cls-1" d="M130.37,93.77c9.68-16.26,7.43-37.05-7.08-50.55-2.64-2.46-5.78-4.22-9.29-3.98-3.08.21-6.9,2.41-7.68,6.33,2.29,1.37,4.46,2.99,6.49,4.88,7.91,7.36,12.04,17.26,12.3,27.27,3.25,3.47,5.26,8.13,5.26,13.25v2.79Z"/>
          <path class="cls-1" d="M156.21,78.33c-.13-3.6-1.1-7.08-3.75-9.38-2.33-2.02-6.58-3.18-9.91-.95.65,2.58,1.04,5.27,1.14,8.04.44,12.16-4.8,23.2-13.33,30.59v10.9c15.74-6.1,26.5-21.21,25.85-39.2Z"/>
          <path class="cls-1" d="M152.32,109.46c-1.37,2.29-2.99,4.46-4.88,6.49-5.28,5.67-11.86,9.39-18.85,11.14-2.53,5.53-7.58,9.68-13.67,10.95,13.92,3.65,29.11-.17,39.75-11.62,2.46-2.64,4.22-5.78,3.98-9.29-.21-3.08-2.41-6.9-6.33-7.68Z"/>
          <path class="cls-1" d="M110.95,77.87h-27.14c-7.24,0-13.11,5.87-13.11,13.11v28.06c0,7.24,5.87,13.11,13.11,13.11h27.14c7.24,0,13.11-5.87,13.11-13.11v-28.06c0-7.24-5.87-13.11-13.11-13.11ZM109.12,109.1l-17.05,10.56c-2.54,1.57-5.82-.25-5.83-3.24l-.05-20.71c0-2.96,3.22-4.81,5.77-3.29l17.09,10.15c2.47,1.46,2.5,5.02.06,6.53Z"/>
        </g>
        <g>
          <path class="cls-1" d="M185.54,102.13v-.23c0-22.83,17.21-41.52,41.87-41.52,12.04,0,20.19,3.21,26.84,8.14,1.84,1.38,3.44,3.9,3.44,7,0,4.82-3.9,8.6-8.72,8.6-2.41,0-4.01-.92-5.28-1.72-4.93-3.67-10.09-5.74-16.4-5.74-13.54,0-23.29,11.24-23.29,25.01v.23c0,13.76,9.52,25.23,23.29,25.23,7.46,0,12.39-2.29,17.43-6.31,1.38-1.15,3.21-1.95,5.28-1.95,4.47,0,8.26,3.67,8.26,8.14,0,2.75-1.38,4.93-2.98,6.31-7.23,6.31-15.71,10.09-28.56,10.09-23.63,0-41.18-18.24-41.18-41.29Z"/>
          <path class="cls-1" d="M265.15,65.89c0-5.05,4.24-8.14,9.75-8.14s9.75,3.1,9.75,8.14v.23c0,5.05-4.24,8.26-9.75,8.26s-9.75-3.21-9.75-8.26v-.23ZM266.18,88.6c0-4.82,3.9-8.72,8.72-8.72s8.72,3.9,8.72,8.72v45.42c0,4.82-3.9,8.72-8.72,8.72s-8.72-3.9-8.72-8.72v-45.42Z"/>
          <path class="cls-1" d="M293.48,88.6c0-4.82,3.9-8.72,8.72-8.72s8.72,3.9,8.72,8.72v.69c4.01-5.16,9.18-9.87,18.01-9.87,13.19,0,20.88,8.72,20.88,22.83v31.77c0,4.82-3.9,8.72-8.72,8.72s-8.72-3.9-8.72-8.72v-26.27c0-8.26-3.9-12.5-10.55-12.5s-10.9,4.25-10.9,12.5v26.27c0,4.82-3.9,8.72-8.72,8.72s-8.72-3.9-8.72-8.72v-45.42Z"/>
          <path class="cls-1" d="M387.54,143.43c-18.47,0-32.12-12.96-32.12-31.77v-.23c0-17.55,12.5-32,30.4-32,20.53,0,29.59,16.86,29.59,29.59,0,5.05-3.56,8.37-8.14,8.37h-34.53c1.72,7.91,7.23,12.04,15.03,12.04,4.82,0,8.83-1.49,12.39-4.13,1.26-.92,2.41-1.38,4.24-1.38,3.9,0,6.77,2.98,6.77,6.88,0,2.29-1.03,4.01-2.29,5.16-5.39,4.59-12.39,7.46-21.34,7.46ZM398.79,106.49c-1.03-7.8-5.62-13.08-12.96-13.08s-11.93,5.16-13.31,13.08h26.27Z"/>
          <path class="cls-1" d="M424.02,70.59c0-4.93,3.9-8.83,8.83-8.83h44.96c4.47,0,8.03,3.56,8.03,8.03s-3.56,8.03-8.03,8.03h-36.13v17.09h30.97c4.47,0,8.03,3.56,8.03,8.03s-3.56,8.03-8.03,8.03h-30.97v22.94c0,4.93-3.9,8.83-8.83,8.83s-8.83-3.9-8.83-8.83v-63.32Z"/>
          <path class="cls-1" d="M491.7,66.34c0-4.82,3.9-8.72,8.72-8.72s8.72,3.9,8.72,8.72v67.68c0,4.82-3.9,8.72-8.72,8.72s-8.72-3.9-8.72-8.72v-67.68Z"/>
          <path class="cls-1" d="M516.02,111.65v-.23c0-17.66,14.22-32,33.38-32s33.15,14.11,33.15,31.77v.23c0,17.66-14.22,32-33.38,32s-33.15-14.11-33.15-31.77ZM565.35,111.65v-.23c0-9.06-6.54-16.98-16.17-16.98s-15.94,7.69-15.94,16.75v.23c0,9.06,6.54,16.98,16.17,16.98s15.94-7.69,15.94-16.75Z"/>
          <path class="cls-1" d="M598.5,135.4l-15.03-43.36c-.34-1.03-.8-2.75-.8-4.24,0-4.01,3.21-7.91,8.37-7.91,4.36,0,7.23,2.75,8.49,6.77l9.41,31.2,9.64-31.09c1.26-4.13,4.47-7,8.95-7h1.03c4.47,0,7.69,2.87,8.95,7l9.75,31.2,9.64-31.43c1.15-3.67,3.79-6.65,8.37-6.65,4.82,0,8.14,3.67,8.14,8.03,0,1.15-.34,2.75-.57,3.56l-15.48,43.93c-1.84,5.39-5.39,7.8-9.64,7.8h-.57c-4.24,0-7.8-2.41-9.41-7.46l-9.75-30.97-9.87,30.97c-1.61,5.05-5.16,7.46-9.41,7.46h-.57c-4.24,0-7.8-2.41-9.64-7.8Z"/>
        </g>
      </g>
    </g>
  </g>
</svg>