<?xml version="1.0" encoding="UTF-8"?>
<svg xmlns="http://www.w3.org/2000/svg" version="1.1" viewBox="0 0 709.5 201.1">
  <defs>
    <style>
      .cls-1 {
        fill: #fdfeff;
      }
    </style>
  </defs>
  <!-- Generator: Adobe Illustrator 28.7.1, SVG Export Plug-In . SVG Version: 1.2.0 Build 142)  -->
  <g>
    <g id="Layer_1">
      <g id="Layer_1-2" data-name="Layer_1">
        <g>
          <g>
            <path class="cls-1" d="M82.7,138.4c7.1,13,20.9,21.5,36.9,21,3.6-.1,7.1-1.1,9.4-3.8,2-2.3,3.2-6.6.9-9.9-2.6.6-5.3,1-8,1.1-9.6.4-18.5-2.8-25.4-8.4h-12.6c-.4,0-.8,0-1.2,0h0Z"/>
            <path class="cls-1" d="M64.4,119v-11.8c-9.7,16.3-7.4,37.1,7.1,50.5,2.6,2.5,5.8,4.2,9.3,4,3.1-.2,6.9-2.4,7.7-6.3-2.3-1.4-4.5-3-6.5-4.9-5.1-4.7-8.6-10.4-10.5-16.6-4.3-3.6-7.1-8.9-7.1-15Z"/>
            <path class="cls-1" d="M66.2,82.9c-16.7,5.6-28.3,21.2-27.6,39.8.1,3.6,1.1,7.1,3.8,9.4,2.3,2,6.6,3.2,9.9.9-.7-2.6-1-5.3-1.1-8-.4-12.2,4.8-23.2,13.3-30.6v-3.4c0-2.9.7-5.6,1.8-8.1h0Z"/>
            <path class="cls-1" d="M96.3,71.6c-16.8-14.1-41.1-13.2-56.2,3.1-2.5,2.6-4.2,5.8-4,9.3.2,3.1,2.4,6.9,6.3,7.7,1.4-2.3,3-4.5,4.9-6.5,8-8.6,18.9-12.7,29.7-12.3,2.1-.8,4.4-1.2,6.8-1.2h12.5,0Z"/>
            <path class="cls-1" d="M115.9,72.2c-4.7-18.2-21-31.2-40.7-30.5-3.6.1-7.1,1.1-9.4,3.8-2,2.3-3.2,6.6-.9,9.9,2.6-.7,5.3-1,8-1.1,14-.5,26.5,6.5,33.7,17.3h4.4c1.7,0,3.3.2,4.9.7h0Z"/>
            <path class="cls-1" d="M130.4,93.8c9.7-16.3,7.4-37-7.1-50.5-2.6-2.5-5.8-4.2-9.3-4-3.1.2-6.9,2.4-7.7,6.3,2.3,1.4,4.5,3,6.5,4.9,7.9,7.4,12,17.3,12.3,27.3,3.2,3.5,5.3,8.1,5.3,13.2v2.8h0Z"/>
            <path class="cls-1" d="M156.2,78.3c-.1-3.6-1.1-7.1-3.8-9.4-2.3-2-6.6-3.2-9.9-.9.6,2.6,1,5.3,1.1,8,.4,12.2-4.8,23.2-13.3,30.6v10.9c15.7-6.1,26.5-21.2,25.9-39.2Z"/>
            <path class="cls-1" d="M152.3,109.5c-1.4,2.3-3,4.5-4.9,6.5-5.3,5.7-11.9,9.4-18.9,11.1-2.5,5.5-7.6,9.7-13.7,10.9,13.9,3.6,29.1-.2,39.8-11.6,2.5-2.6,4.2-5.8,4-9.3-.2-3.1-2.4-6.9-6.3-7.7h0Z"/>
            <path class="cls-1" d="M110.9,77.9h-27.1c-7.2,0-13.1,5.9-13.1,13.1v28.1c0,7.2,5.9,13.1,13.1,13.1h27.1c7.2,0,13.1-5.9,13.1-13.1v-28.1c0-7.2-5.9-13.1-13.1-13.1ZM109.1,109.1l-17,10.6c-2.5,1.6-5.8-.2-5.8-3.2v-20.7c0-3,3.2-4.8,5.7-3.3l17.1,10.2c2.5,1.5,2.5,5,0,6.5h0Z"/>
          </g>
          <g>
            <path class="cls-1" d="M185.5,102.1v-.2c0-22.8,17.2-41.5,41.9-41.5s20.2,3.2,26.8,8.1c1.8,1.4,3.4,3.9,3.4,7,0,4.8-3.9,8.6-8.7,8.6s-4-.9-5.3-1.7c-4.9-3.7-10.1-5.7-16.4-5.7-13.5,0-23.3,11.2-23.3,25v.2c0,13.8,9.5,25.2,23.3,25.2s12.4-2.3,17.4-6.3c1.4-1.2,3.2-1.9,5.3-1.9,4.5,0,8.3,3.7,8.3,8.1s-1.4,4.9-3,6.3c-7.2,6.3-15.7,10.1-28.6,10.1-23.6,0-41.2-18.2-41.2-41.3h0Z"/>
            <path class="cls-1" d="M265.1,65.9c0-5,4.2-8.1,9.8-8.1s9.8,3.1,9.8,8.1v.2c0,5.1-4.2,8.3-9.8,8.3s-9.8-3.2-9.8-8.3v-.2ZM266.2,88.6c0-4.8,3.9-8.7,8.7-8.7s8.7,3.9,8.7,8.7v45.4c0,4.8-3.9,8.7-8.7,8.7s-8.7-3.9-8.7-8.7c0,0,0-45.4,0-45.4Z"/>
            <path class="cls-1" d="M293.5,88.6c0-4.8,3.9-8.7,8.7-8.7s8.7,3.9,8.7,8.7v.7c4-5.2,9.2-9.9,18-9.9,13.2,0,20.9,8.7,20.9,22.8v31.8c0,4.8-3.9,8.7-8.7,8.7s-8.7-3.9-8.7-8.7v-26.3c0-8.3-3.9-12.5-10.5-12.5s-10.9,4.2-10.9,12.5v26.3c0,4.8-3.9,8.7-8.7,8.7s-8.7-3.9-8.7-8.7v-45.4h0Z"/>
            <path class="cls-1" d="M387.5,143.4c-18.5,0-32.1-13-32.1-31.8v-.2c0-17.5,12.5-32,30.4-32s29.6,16.9,29.6,29.6-3.6,8.4-8.1,8.4h-34.5c1.7,7.9,7.2,12,15,12s8.8-1.5,12.4-4.1c1.3-.9,2.4-1.4,4.2-1.4,3.9,0,6.8,3,6.8,6.9s-1,4-2.3,5.2c-5.4,4.6-12.4,7.5-21.3,7.5h0ZM398.8,106.5c-1-7.8-5.6-13.1-13-13.1s-11.9,5.2-13.3,13.1h26.3Z"/>
            <path class="cls-1" d="M424,70.6c0-4.9,3.9-8.8,8.8-8.8h45c4.5,0,8,3.6,8,8s-3.6,8-8,8h-36.1v17.1h31c4.5,0,8,3.6,8,8s-3.6,8-8,8h-31v22.9c0,4.9-3.9,8.8-8.8,8.8s-8.8-3.9-8.8-8.8c0,0,0-63.3,0-63.3Z"/>
            <path class="cls-1" d="M491.7,66.3c0-4.8,3.9-8.7,8.7-8.7s8.7,3.9,8.7,8.7v67.7c0,4.8-3.9,8.7-8.7,8.7s-8.7-3.9-8.7-8.7c0,0,0-67.7,0-67.7Z"/>
            <path class="cls-1" d="M516,111.7v-.2c0-17.7,14.2-32,33.4-32s33.2,14.1,33.2,31.8v.2c0,17.7-14.2,32-33.4,32s-33.2-14.1-33.2-31.8ZM565.3,111.7v-.2c0-9.1-6.5-17-16.2-17s-15.9,7.7-15.9,16.8v.2c0,9.1,6.5,17,16.2,17s15.9-7.7,15.9-16.8Z"/>
            <path class="cls-1" d="M598.5,135.4l-15-43.4c-.3-1-.8-2.8-.8-4.2,0-4,3.2-7.9,8.4-7.9s7.2,2.8,8.5,6.8l9.4,31.2,9.6-31.1c1.3-4.1,4.5-7,9-7h1c4.5,0,7.7,2.9,9,7l9.8,31.2,9.6-31.4c1.2-3.7,3.8-6.7,8.4-6.7s8.1,3.7,8.1,8-.3,2.8-.6,3.6l-15.5,43.9c-1.8,5.4-5.4,7.8-9.6,7.8h-.6c-4.2,0-7.8-2.4-9.4-7.5l-9.8-31-9.9,31c-1.6,5.1-5.2,7.5-9.4,7.5h-.6c-4.2,0-7.8-2.4-9.6-7.8h0Z"/>
          </g>
        </g>
      </g>
    </g>
  </g>
</svg>